<?xml version="1.0" standalone="no"?>
<!DOCTYPE svg PUBLIC "-//W3C//DTD SVG 20010904//EN"
 "http://www.w3.org/TR/2001/REC-SVG-20010904/DTD/svg10.dtd">
<svg version="1.0" xmlns="http://www.w3.org/2000/svg"
 width="16.000000pt" height="16.000000pt" viewBox="0 0 16.000000 16.000000"
 preserveAspectRatio="xMidYMid meet">
<metadata>
Created by potrace 1.11, written by Peter Selinger 2001-2013
</metadata>
<g transform="translate(0.000000,16.000000) scale(0.003125,-0.003125)"
fill="#000000" stroke="none">
<path d="M1180 4670 c-102 -21 -185 -83 -229 -172 l-31 -61 0 -259 0 -258 160
0 160 0 0 220 0 219 280 1 280 0 0 -1820 0 -1820 -280 0 -280 0 0 240 0 240
-160 0 -161 0 1 -255 c1 -288 6 -315 72 -401 45 -60 95 -97 167 -124 50 -20
84 -20 1454 -17 1317 2 1404 3 1437 20 82 41 108 68 153 157 l32 65 0 1910 c0
1792 -1 1912 -17 1948 -30 66 -76 115 -136 144 -51 25 -69 28 -189 31 l-133 4
0 -161 0 -161 80 0 80 0 0 -1820 0 -1820 -980 0 -980 0 0 1820 0 1820 380 0
380 0 0 160 0 160 -752 -1 c-414 -1 -769 -5 -788 -9z"/>
<path d="M2880 3665 c0 -558 3 -1015 8 -1014 4 0 27 24 51 52 24 29 78 90 120
136 42 46 81 89 86 95 6 6 29 32 51 57 l42 46 39 -41 c42 -43 106 -114 213
-235 36 -40 75 -84 88 -98 l22 -24 0 1020 0 1021 -360 0 -360 0 0 -1015z"/>
<path d="M1403 3833 c-16 -7 -37 -27 -47 -43 l-17 -30 -275 0 -275 0 -24 -26
c-30 -32 -32 -73 -6 -105 l19 -24 286 -3 c164 -2 286 -7 286 -12 0 -5 20 -21
45 -36 116 -68 248 17 241 154 -4 58 -26 91 -81 120 -39 20 -116 23 -152 5z"/>
<path d="M920 3120 l0 -320 160 0 160 0 0 320 0 320 -160 0 -160 0 0 -320z"/>
<path d="M1402 2715 c-17 -8 -38 -27 -47 -44 l-16 -31 -273 0 -273 0 -27 -25
c-34 -32 -35 -77 -1 -110 l24 -25 274 0 274 0 29 -25 c66 -57 156 -57 217 -1
21 19 37 41 37 49 0 9 5 19 10 22 13 8 13 66 -1 102 -13 36 -47 72 -79 85 -38
16 -113 17 -148 3z"/>
<path d="M920 2000 l0 -320 160 0 160 0 0 320 0 320 -160 0 -160 0 0 -320z"/>
<path d="M1404 1594 c-17 -8 -38 -28 -48 -44 l-17 -30 -275 0 -275 0 -24 -25
c-30 -29 -32 -74 -6 -106 l19 -24 282 -3 c267 -3 282 -4 301 -23 46 -46 120
-60 180 -35 65 27 99 86 94 165 -4 82 -61 132 -156 137 -25 1 -59 -4 -75 -12z"/>
</g>
</svg>
